<?xml version="1.0" encoding="UTF-8"?>
<svg width="250px" height="250px" viewBox="0 0 250 250" version="1.1" xmlns="http://www.w3.org/2000/svg" xmlns:xlink="http://www.w3.org/1999/xlink">
    <!-- Generator: Sketch 46.2 (44496) - http://www.bohemiancoding.com/sketch -->
    <title>Artboard</title>
    <desc>Created with Sketch.</desc>
    <defs></defs>
    <g id="Page-1" stroke="none" stroke-width="1" fill="none" fill-rule="evenodd">
        <g id="Artboard">
            <circle id="Oval" fill="#000000" cx="125" cy="125" r="125"></circle>
            <path d="M145.099848,128.515836 C145.099848,139.632745 136.100839,148.644781 125,148.644781 C113.899161,148.644781 104.900152,139.632745 104.900152,128.515836 C104.900152,117.398927 113.899161,108.386891 125,108.386891 C136.038645,108.535841 144.951114,117.461212 145.099848,128.515836 L145.099848,128.515836 Z M191.999493,97.4837127 L191.999493,159.967313 C191.926525,169.895785 183.9075,177.926419 173.993379,177.999492 L76.0066206,177.999492 C71.2201497,178.035568 66.6192639,176.147342 63.2346219,172.7578 C59.84998,169.368259 57.964483,164.760712 58.0005069,159.967313 L58.0005069,97.0643597 C58.0734748,87.1358873 66.0925002,79.1052534 76.0066206,79.0321798 L91.5002534,79.0321798 L94.8502281,69.3870604 C96.9448913,64.4805224 101.669871,61.2171986 106.993886,61 L143.006114,61 C148.330129,61.2171986 153.055109,64.4805224 155.149772,69.3870604 L158.499747,79.4515329 L173.993379,79.4515329 C178.77985,79.4154568 183.380736,81.3036834 186.765378,84.693225 C190.15002,88.0827665 192.035517,92.6903127 191.999493,97.4837127 L191.999493,97.4837127 Z M155.987266,128.935189 C155.987266,111.565018 141.926315,97.4837127 124.581253,97.4837127 C107.236191,97.4837127 93.1752408,111.565018 93.1752408,128.935189 C93.1752408,146.30536 107.236191,160.386666 124.581253,160.386666 C132.914053,160.397814 140.908765,157.087766 146.80095,151.187052 C152.693135,145.286338 155.998398,137.280052 155.987266,128.935189 Z" id="Shape" fill="#FFFFFF" fill-rule="nonzero"></path>
        </g>
    </g>
</svg>