<?xml version="1.0" encoding="UTF-8"?>
<svg width="256px" height="256px" viewBox="0 0 256 256" version="1.1" xmlns="http://www.w3.org/2000/svg" xmlns:xlink="http://www.w3.org/1999/xlink">
    <!-- Generator: Sketch 46.2 (44496) - http://www.bohemiancoding.com/sketch -->
    <title>Artboard</title>
    <desc>Created with Sketch.</desc>
    <defs>
        <linearGradient x1="98.2920121%" y1="1.70798788%" x2="0%" y2="100%" id="linearGradient-1">
            <stop stop-color="#17EFF9" offset="0%"></stop>
            <stop stop-color="#00D2EF" offset="100%"></stop>
        </linearGradient>
        <circle id="path-2" cx="128" cy="128" r="128"></circle>
        <linearGradient x1="95.964206%" y1="95.964206%" x2="0%" y2="0%" id="linearGradient-4">
            <stop stop-color="#E8FFE8" offset="0%"></stop>
            <stop stop-color="#C4FFED" stop-opacity="0" offset="52.0029496%"></stop>
            <stop stop-color="#A6FFF2" offset="100%"></stop>
        </linearGradient>
        <circle id="path-5" cx="128" cy="128" r="128"></circle>
    </defs>
    <g stroke="none" stroke-width="1" fill="none" fill-rule="evenodd">
        <mask id="mask-3" fill="white">
            <use xlink:href="#path-2"></use>
        </mask>
        <use fill="url(#linearGradient-1)" transform="translate(128.000000, 128.000000) rotate(-90.000000) translate(-128.000000, -128.000000) " xlink:href="#path-2"></use>
        <mask id="mask-6" fill="white">
            <use xlink:href="#path-5"></use>
        </mask>
        <use fill="url(#linearGradient-4)" opacity="0.797497736" transform="translate(128.000000, 128.000000) rotate(-90.000000) translate(-128.000000, -128.000000) " xlink:href="#path-5"></use>
        <g mask="url(#mask-6)" fill="#FFFFFF" fill-rule="nonzero">
            <g transform="translate(64.000000, 73.000000)">
                <path d="M119.076923,13.2201209 L90.9631923,13.2201209 L80.8581923,1.69010043 C79.9155,0.616234077 78.5543846,0 77.1254615,0 L51.8745385,0 C50.4456154,0 49.0845,0.616234077 48.1418077,1.69010043 L38.0368077,13.2201209 L9.92307692,13.2201209 C4.44388462,13.2201209 0,17.6593192 0,23.1327334 L0,89.2184688 C0,94.691883 4.44388462,99.1310813 9.92307692,99.1310813 L32.3541923,99.1310813 C40.0892308,108.224251 51.6148846,114 64.5,114 C77.3851154,114 88.9107692,108.224251 96.6458077,99.1310813 L119.076923,99.1310813 C124.556115,99.1310813 129,94.691883 129,89.2184688 L129,23.1327334 C129,17.6593192 124.556115,13.2201209 119.076923,13.2201209 Z M64.5,104.087388 C46.7178462,104.087388 32.25,89.6347985 32.25,71.8713969 C32.25,54.1079953 46.7178462,39.6554063 64.5,39.6554063 C82.2821538,39.6554063 96.75,54.1079953 96.75,71.8713969 C96.75,89.6347985 82.2821538,104.087388 64.5,104.087388 Z M119.076923,87.5663667 C119.076923,88.4799791 118.337654,89.2184688 117.423077,89.2184688 L102.930423,89.2184688 C105.326846,83.9267858 106.673077,78.0585192 106.673077,71.8713969 C106.673077,48.599887 87.7960769,29.7427938 64.5,29.7427938 C41.2039231,29.7427938 22.3269231,48.599887 22.3269231,71.8713969 C22.3269231,78.0585192 23.6715,83.9267858 26.0695769,89.2184688 L11.5769231,89.2184688 C10.6623462,89.2184688 9.92307692,88.4799791 9.92307692,87.5663667 L9.92307692,24.7848354 C9.92307692,23.871223 10.6623462,23.1327334 11.5769231,23.1327334 L42.5385769,23.1327334 L45.5039231,19.7492283 L54.1254231,9.9126125 L74.8762308,9.9126125 L83.4977308,19.7492283 L86.4630769,23.1327334 L117.423077,23.1327334 C118.337654,23.1327334 119.076923,23.871223 119.076923,24.7848354 L119.076923,87.5663667 Z M64.5,45.4377636 C49.4533077,45.4377636 37.2115385,57.6666232 37.2115385,72.6974479 C37.2115385,75.4349811 39.4326538,77.6537542 42.1730769,77.6537542 C44.9135,77.6537542 47.1346154,75.4349811 47.1346154,72.6974479 C47.1346154,63.1317769 54.9242308,55.3503761 64.5,55.3503761 C67.2404231,55.3503761 69.4615385,53.131603 69.4615385,50.3940698 C69.4615385,47.6565367 67.2404231,45.4377636 64.5,45.4377636 Z M16.4408846,39.6570584 L26.3639615,39.6570584 L26.3639615,29.7444459 L16.4408846,29.7444459 L16.4408846,39.6570584 Z"></path>
            </g>
        </g>
    </g>
</svg>