<?xml version="1.0" ?><!DOCTYPE svg  PUBLIC '-//W3C//DTD SVG 1.1//EN'  'http://www.w3.org/Graphics/SVG/1.1/DTD/svg11.dtd'><svg height="78px" id="Layer_1" style="enable-background:new 0 0 78 78;" version="1.1" viewBox="0 0 78 78" width="78px" xml:space="preserve" xmlns="http://www.w3.org/2000/svg" xmlns:xlink="http://www.w3.org/1999/xlink"><path d="M72,12.5H55.001l-6.11-6.979c-0.57-0.65-1.393-1.023-2.257-1.023H31.366  c-0.864,0-1.687,0.373-2.257,1.023l-6.11,6.979H6c-3.313,0-6,2.687-6,6v40.001c0,3.313,2.687,6,6,6h13.563  c4.677,5.504,11.646,9,19.437,9s14.76-3.496,19.437-9H72c3.313,0,6-2.687,6-6V18.5C78,15.187,75.313,12.5,72,12.5z M39,67.501  c-10.752,0-19.5-8.748-19.5-19.5s8.748-19.5,19.5-19.5s19.5,8.748,19.5,19.5S49.752,67.501,39,67.501z M72,57.501  c0,0.553-0.447,1-1,1h-8.763c1.449-3.203,2.263-6.755,2.263-10.5c0-14.086-11.414-25.5-25.5-25.5s-25.5,11.414-25.5,25.5  c0,3.745,0.813,7.297,2.263,10.5H7c-0.553,0-1-0.447-1-1V19.5c0-0.553,0.447-1,1-1h18.721l1.793-2.048l5.213-5.954h12.547  l5.213,5.954l1.793,2.048H71c0.553,0,1,0.447,1,1V57.501z M39,32.001c-9.098,0-16.5,7.402-16.5,16.5c0,1.657,1.343,3,3,3  s3-1.343,3-3c0-5.79,4.71-10.5,10.5-10.5c1.657,0,3-1.343,3-3S40.657,32.001,39,32.001z M9.941,28.502h6v-6h-6V28.502z" style="fill:#fff;"/></svg>
