<?xml version="1.0" encoding="UTF-8"?>
<svg xmlns="http://www.w3.org/2000/svg" width="344" height="345" viewBox="0 0 344 345">
  <g fill="none" fill-rule="evenodd">
    <path fill="#DDD" d="M73.013407,2.6866064 C106.18824,0.895535467 139.183771,-3.78753344e-15 172,0 C204.832174,0 237.664282,0.896405919 270.496323,2.68921776 L270.496323,2.68921771 C308.699378,4.77531668 339.208201,35.2833237 341.295323,73.4863222 C343.098441,106.490881 344,139.495441 344,172.5 C344,205.511425 343.098066,238.52285 341.294197,271.534276 L341.294197,271.534275 C339.20649,309.740047 308.693155,340.248892 270.487077,342.330977 C237.836179,344.110326 205.007154,345 172,345 C139.007428,345 106.01479,344.111111 73.0220864,342.333334 L73.0220864,342.333335 C34.4742283,340.256224 3.79947595,309.257162 2.12787429,270.689591 C0.709291429,237.959727 1.89395185e-15,205.229864 0,172.5 C0,139.776865 0.708999838,107.053729 2.12699951,74.3305938 L2.12699924,74.3305938 C3.79813889,35.7657548 34.4685114,4.76760084 73.013407,2.6866064 Z"/>
    <path fill="#2A2A2A" fill-rule="nonzero" d="M207.142939,162.049506 L207.142939,215.024753 L136.857061,215.024753 L136.857061,162.049506 L77,162.049506 L77,268 L267,268 L267,162.049506 L207.142939,162.049506 Z M136.857061,78 L207.158458,78 L207.158458,130.975247 L136.857061,130.975247 L136.857061,78 Z"/>
  </g>
</svg>